<svg width="149" height="31" viewBox="0 0 149 31" fill="none" xmlns="http://www.w3.org/2000/svg">
<path d="M12.5 19.9V22.5H1.66V8.5H12.24V11.1H4.88V14.14H11.38V16.66H4.88V19.9H12.5ZM25.6198 11.74V22.5H22.6598V21.22C22.2465 21.6867 21.7532 22.0467 21.1798 22.3C20.6065 22.54 19.9865 22.66 19.3198 22.66C17.9065 22.66 16.7865 22.2533 15.9598 21.44C15.1332 20.6267 14.7198 19.42 14.7198 17.82V11.74H17.8398V17.36C17.8398 19.0933 18.5665 19.96 20.0198 19.96C20.7665 19.96 21.3665 19.72 21.8198 19.24C22.2732 18.7467 22.4998 18.02 22.4998 17.06V11.74H25.6198ZM31.4903 13.16C31.8636 12.64 32.3636 12.2467 32.9903 11.98C33.6303 11.7133 34.3636 11.58 35.1903 11.58V14.46C34.8436 14.4333 34.6103 14.42 34.4903 14.42C33.597 14.42 32.897 14.6733 32.3903 15.18C31.8836 15.6733 31.6303 16.42 31.6303 17.42V22.5H28.5103V11.74H31.4903V13.16ZM42.0678 22.66C40.9345 22.66 39.9145 22.4267 39.0078 21.96C38.1145 21.48 37.4145 20.82 36.9078 19.98C36.4011 19.14 36.1478 18.1867 36.1478 17.12C36.1478 16.0533 36.4011 15.1 36.9078 14.26C37.4145 13.42 38.1145 12.7667 39.0078 12.3C39.9145 11.82 40.9345 11.58 42.0678 11.58C43.2011 11.58 44.2145 11.82 45.1078 12.3C46.0011 12.7667 46.7011 13.42 47.2078 14.26C47.7145 15.1 47.9678 16.0533 47.9678 17.12C47.9678 18.1867 47.7145 19.14 47.2078 19.98C46.7011 20.82 46.0011 21.48 45.1078 21.96C44.2145 22.4267 43.2011 22.66 42.0678 22.66ZM42.0678 20.1C42.8678 20.1 43.5211 19.8333 44.0278 19.3C44.5478 18.7533 44.8078 18.0267 44.8078 17.12C44.8078 16.2133 44.5478 15.4933 44.0278 14.96C43.5211 14.4133 42.8678 14.14 42.0678 14.14C41.2678 14.14 40.6078 14.4133 40.0878 14.96C39.5678 15.4933 39.3078 16.2133 39.3078 17.12C39.3078 18.0267 39.5678 18.7533 40.0878 19.3C40.6078 19.8333 41.2678 20.1 42.0678 20.1Z" fill="white"/>
<path d="M65 1C72.7322 1 79 7.49165 79 15.5C79 23.5084 72.7322 30 65 30C57.2678 30 51 23.5084 51 15.5C51 7.49165 57.2678 1 65 1ZM67.1 8.25H63.6C62.8574 8.25 62.1452 8.55553 61.6201 9.09939C61.095 9.64325 60.8 10.3809 60.8 11.15V21.3C60.8 21.6846 60.9475 22.0534 61.2101 22.3253C61.4726 22.5972 61.8287 22.75 62.2 22.75C62.5713 22.75 62.9274 22.5972 63.1899 22.3253C63.4525 22.0534 63.6 21.6846 63.6 21.3V18.4H67.1C68.3996 18.4 69.6459 17.8653 70.5648 16.9136C71.4838 15.9618 72 14.671 72 13.325C72 11.979 71.4838 10.6882 70.5648 9.73643C69.6459 8.78469 68.3996 8.25 67.1 8.25ZM67.1 11.15C67.657 11.15 68.1911 11.3792 68.5849 11.787C68.9788 12.1949 69.2 12.7482 69.2 13.325C69.2 13.9018 68.9788 14.4551 68.5849 14.863C68.1911 15.2708 67.657 15.5 67.1 15.5H63.6V11.15H67.1Z" fill="white"/>
<path d="M86.78 11.58C88.4467 11.58 89.7267 11.98 90.62 12.78C91.5133 13.5667 91.96 14.76 91.96 16.36V22.5H89.04V21.16C88.4533 22.16 87.36 22.66 85.76 22.66C84.9333 22.66 84.2133 22.52 83.6 22.24C83 21.96 82.54 21.5733 82.22 21.08C81.9 20.5867 81.74 20.0267 81.74 19.4C81.74 18.4 82.1133 17.6133 82.86 17.04C83.62 16.4667 84.7867 16.18 86.36 16.18H88.84C88.84 15.5 88.6333 14.98 88.22 14.62C87.8067 14.2467 87.1867 14.06 86.36 14.06C85.7867 14.06 85.22 14.1533 84.66 14.34C84.1133 14.5133 83.6467 14.7533 83.26 15.06L82.14 12.88C82.7267 12.4667 83.4267 12.1467 84.24 11.92C85.0667 11.6933 85.9133 11.58 86.78 11.58ZM86.54 20.56C87.0733 20.56 87.5467 20.44 87.96 20.2C88.3733 19.9467 88.6667 19.58 88.84 19.1V18H86.7C85.42 18 84.78 18.42 84.78 19.26C84.78 19.66 84.9333 19.98 85.24 20.22C85.56 20.4467 85.9933 20.56 86.54 20.56ZM97.7638 13.16C98.1371 12.64 98.6371 12.2467 99.2638 11.98C99.9038 11.7133 100.637 11.58 101.464 11.58V14.46C101.117 14.4333 100.884 14.42 100.764 14.42C99.8704 14.42 99.1704 14.6733 98.6638 15.18C98.1571 15.6733 97.9038 16.42 97.9038 17.42V22.5H94.7838V11.74H97.7638V13.16ZM107.939 18.28L106.439 19.76V22.5H103.319V7.66H106.439V16.06L110.999 11.74H114.719L110.239 16.3L115.119 22.5H111.339L107.939 18.28ZM116.444 11.74H119.564V22.5H116.444V11.74ZM118.004 10.24C117.431 10.24 116.964 10.0733 116.604 9.74C116.244 9.40667 116.064 8.99333 116.064 8.5C116.064 8.00667 116.244 7.59333 116.604 7.26C116.964 6.92667 117.431 6.76 118.004 6.76C118.577 6.76 119.044 6.92 119.404 7.24C119.764 7.56 119.944 7.96 119.944 8.44C119.944 8.96 119.764 9.39333 119.404 9.74C119.044 10.0733 118.577 10.24 118.004 10.24ZM129 11.58C130.333 11.58 131.406 11.98 132.22 12.78C133.046 13.58 133.46 14.7667 133.46 16.34V22.5H130.34V16.82C130.34 15.9667 130.153 15.3333 129.78 14.92C129.406 14.4933 128.866 14.28 128.16 14.28C127.373 14.28 126.746 14.5267 126.28 15.02C125.813 15.5 125.58 16.22 125.58 17.18V22.5H122.46V11.74H125.44V13C125.853 12.5467 126.366 12.2 126.98 11.96C127.593 11.7067 128.266 11.58 129 11.58ZM147.505 11.74V20.7C147.505 22.6733 146.992 24.14 145.965 25.1C144.938 26.06 143.438 26.54 141.465 26.54C140.425 26.54 139.438 26.4133 138.505 26.16C137.572 25.9067 136.798 25.54 136.185 25.06L137.425 22.82C137.878 23.1933 138.452 23.4867 139.145 23.7C139.838 23.9267 140.532 24.04 141.225 24.04C142.305 24.04 143.098 23.7933 143.605 23.3C144.125 22.82 144.385 22.0867 144.385 21.1V20.64C143.572 21.5333 142.438 21.98 140.985 21.98C139.998 21.98 139.092 21.7667 138.265 21.34C137.452 20.9 136.805 20.2867 136.325 19.5C135.845 18.7133 135.605 17.8067 135.605 16.78C135.605 15.7533 135.845 14.8467 136.325 14.06C136.805 13.2733 137.452 12.6667 138.265 12.24C139.092 11.8 139.998 11.58 140.985 11.58C142.545 11.58 143.732 12.0933 144.545 13.12V11.74H147.505ZM141.605 19.42C142.432 19.42 143.105 19.18 143.625 18.7C144.158 18.2067 144.425 17.5667 144.425 16.78C144.425 15.9933 144.158 15.36 143.625 14.88C143.105 14.3867 142.432 14.14 141.605 14.14C140.778 14.14 140.098 14.3867 139.565 14.88C139.032 15.36 138.765 15.9933 138.765 16.78C138.765 17.5667 139.032 18.2067 139.565 18.7C140.098 19.18 140.778 19.42 141.605 19.42Z" fill="white"/>
</svg>
