<svg width="235" height="84" viewBox="0 0 235 84" fill="none" xmlns="http://www.w3.org/2000/svg">
<circle cx="40" cy="42" r="36" fill="white" stroke="#FE0200" stroke-width="8"/>
<path d="M27.5383 56C25.6175 56 23.7098 55.7551 21.8153 55.2652C19.9207 54.7495 18.3156 54.0276 17 53.0994L19.4866 48.3039C20.5391 49.0516 21.7626 49.6446 23.1572 50.0829C24.5518 50.5212 25.9595 50.7403 27.3804 50.7403C28.9855 50.7403 30.2486 50.4309 31.1695 49.8122C32.0905 49.1934 32.5509 48.3425 32.5509 47.2597C32.5509 46.2284 32.1431 45.4162 31.3274 44.8232C30.5117 44.2302 29.196 43.9337 27.3804 43.9337H24.4597V39.7956L32.1562 31.2486L32.8667 33.4917H18.3814V28.4641H37.7214V32.5249L30.0644 41.0718L26.8279 39.2541H28.6829C32.0773 39.2541 34.6428 40.0018 36.3795 41.4972C38.1161 42.9926 38.9844 44.9134 38.9844 47.2597C38.9844 48.7808 38.5766 50.2118 37.7609 51.5525C36.9452 52.8674 35.6953 53.9374 34.0113 54.7624C32.3273 55.5875 30.1696 56 27.5383 56Z" fill="#2A2A2A"/>
<path d="M51.6461 28C54.1984 28 56.3956 28.5157 58.2375 29.547C60.0794 30.5783 61.5003 32.0866 62.5002 34.0718C63.5001 36.0313 64 38.4807 64 41.4199C64 44.5396 63.3948 47.1823 62.1844 49.3481C61.0003 51.5138 59.3558 53.1639 57.2507 54.2983C55.1457 55.4328 52.6986 56 49.9094 56C48.4622 56 47.0676 55.8453 45.7257 55.5359C44.3837 55.2265 43.226 54.7624 42.2524 54.1436L44.6205 49.5414C45.3836 50.0571 46.1993 50.418 47.0676 50.6243C47.936 50.8048 48.8438 50.895 49.791 50.895C52.1592 50.895 54.0406 50.186 55.4351 48.768C56.856 47.3499 57.5665 45.2486 57.5665 42.4641C57.5665 42 57.5533 41.4843 57.527 40.9171C57.5007 40.3499 57.4349 39.7827 57.3297 39.2155L59.0663 40.8398C58.619 41.8453 57.9875 42.6961 57.1718 43.3923C56.3561 44.0626 55.4088 44.5783 54.33 44.9392C53.2512 45.2744 52.0408 45.442 50.6988 45.442C48.9359 45.442 47.3308 45.0939 45.8836 44.3978C44.4627 43.7017 43.3181 42.7219 42.4497 41.4586C41.6077 40.1952 41.1867 38.7127 41.1867 37.011C41.1867 35.1547 41.6472 33.5562 42.5681 32.2155C43.5154 30.8748 44.7784 29.8435 46.3572 29.1215C47.9623 28.3738 49.7252 28 51.6461 28ZM52.0408 32.6796C51.1198 32.6796 50.3173 32.8471 49.6331 33.1823C48.949 33.4917 48.4096 33.9558 48.0149 34.5746C47.6202 35.1676 47.4229 35.8766 47.4229 36.7017C47.4229 37.9392 47.8439 38.9319 48.6859 39.6796C49.5542 40.4015 50.6988 40.7624 52.1197 40.7624C53.0407 40.7624 53.8564 40.5948 54.5668 40.2597C55.3036 39.8987 55.8693 39.4088 56.264 38.7901C56.6587 38.1713 56.856 37.4751 56.856 36.7017C56.856 35.9282 56.6587 35.2449 56.264 34.6519C55.8956 34.0331 55.3562 33.5562 54.6458 33.221C53.9353 32.86 53.067 32.6796 52.0408 32.6796Z" fill="#2A2A2A"/>
<path d="M104.418 26.955C105.829 27.185 106.91 27.714 107.661 28.542C108.412 29.3547 108.788 30.3667 108.788 31.578C108.788 32.5133 108.543 33.3797 108.052 34.177C107.561 34.959 106.81 35.5877 105.798 36.063C104.801 36.5383 103.575 36.776 102.118 36.776C100.983 36.776 99.864 36.6303 98.76 36.339C97.6713 36.0323 96.7437 35.603 95.977 35.051L97.426 32.199C98.0393 32.659 98.7447 33.0193 99.542 33.28C100.355 33.5253 101.183 33.648 102.026 33.648C102.961 33.648 103.697 33.4717 104.234 33.119C104.771 32.751 105.039 32.2373 105.039 31.578C105.039 30.2593 104.035 29.6 102.026 29.6H100.324V27.139L103.636 23.39H96.782V20.4H108.052V22.815L104.418 26.955ZM116.166 20.124C118.42 20.124 120.184 20.814 121.456 22.194C122.729 23.5587 123.365 25.529 123.365 28.105C123.365 29.9297 123.02 31.4937 122.33 32.797C121.656 34.1003 120.697 35.0893 119.455 35.764C118.213 36.4387 116.78 36.776 115.154 36.776C114.296 36.776 113.475 36.684 112.693 36.5C111.911 36.3007 111.244 36.0247 110.692 35.672L112.072 32.935C112.854 33.4717 113.859 33.74 115.085 33.74C116.45 33.74 117.531 33.3413 118.328 32.544C119.126 31.7313 119.555 30.566 119.616 29.048C118.65 30.014 117.316 30.497 115.614 30.497C114.587 30.497 113.652 30.29 112.808 29.876C111.965 29.462 111.298 28.8793 110.807 28.128C110.317 27.3613 110.071 26.4797 110.071 25.483C110.071 24.4097 110.34 23.4667 110.876 22.654C111.413 21.8413 112.141 21.2203 113.061 20.791C113.997 20.3463 115.032 20.124 116.166 20.124ZM116.442 27.714C117.255 27.714 117.914 27.4917 118.42 27.047C118.942 26.587 119.202 26.0043 119.202 25.299C119.202 24.5937 118.949 24.0187 118.443 23.574C117.953 23.1293 117.27 22.907 116.396 22.907C115.599 22.907 114.947 23.1217 114.441 23.551C113.951 23.9803 113.705 24.563 113.705 25.299C113.705 26.035 113.951 26.6253 114.441 27.07C114.947 27.4993 115.614 27.714 116.442 27.714ZM142.408 27.07H136.06V36.5H132.495V24.126H142.408V27.07ZM151.6 23.942C152.75 23.942 153.793 24.2103 154.728 24.747C155.679 25.2683 156.422 26.012 156.959 26.978C157.496 27.9287 157.764 29.0403 157.764 30.313C157.764 31.5857 157.496 32.705 156.959 33.671C156.422 34.6217 155.679 35.3653 154.728 35.902C153.793 36.4233 152.75 36.684 151.6 36.684C150.021 36.684 148.779 36.1857 147.874 35.189V40.962H144.286V24.126H147.713V25.552C148.602 24.4787 149.898 23.942 151.6 23.942ZM150.979 33.74C151.899 33.74 152.65 33.4333 153.233 32.82C153.831 32.1913 154.13 31.3557 154.13 30.313C154.13 29.2703 153.831 28.4423 153.233 27.829C152.65 27.2003 151.899 26.886 150.979 26.886C150.059 26.886 149.3 27.2003 148.702 27.829C148.119 28.4423 147.828 29.2703 147.828 30.313C147.828 31.3557 148.119 32.1913 148.702 32.82C149.3 33.4333 150.059 33.74 150.979 33.74ZM164.884 23.942C166.8 23.942 168.272 24.402 169.3 25.322C170.327 26.2267 170.841 27.599 170.841 29.439V36.5H167.483V34.959C166.808 36.109 165.551 36.684 163.711 36.684C162.76 36.684 161.932 36.523 161.227 36.201C160.537 35.879 160.008 35.4343 159.64 34.867C159.272 34.2997 159.088 33.6557 159.088 32.935C159.088 31.785 159.517 30.8803 160.376 30.221C161.25 29.5617 162.591 29.232 164.401 29.232H167.253C167.253 28.45 167.015 27.852 166.54 27.438C166.064 27.0087 165.351 26.794 164.401 26.794C163.741 26.794 163.09 26.9013 162.446 27.116C161.817 27.3153 161.28 27.5913 160.836 27.944L159.548 25.437C160.222 24.9617 161.027 24.5937 161.963 24.333C162.913 24.0723 163.887 23.942 164.884 23.942ZM164.608 34.269C165.221 34.269 165.765 34.131 166.241 33.855C166.716 33.5637 167.053 33.142 167.253 32.59V31.325H164.792C163.32 31.325 162.584 31.808 162.584 32.774C162.584 33.234 162.76 33.602 163.113 33.878C163.481 34.1387 163.979 34.269 164.608 34.269ZM173.957 24.126H177.522V28.956H182.904V24.126H186.492V36.5H182.904V31.877H177.522V36.5H173.957V24.126ZM189.927 24.126H193.492V31.486L199.518 24.126H202.807V36.5H199.242V29.14L193.239 36.5H189.927V24.126ZM220.194 33.556V39.214H216.859V36.5H206.256V24.126H209.821V33.556H214.812V24.126H218.4V33.556H220.194ZM227.258 23.942C229.174 23.942 230.646 24.402 231.674 25.322C232.701 26.2267 233.215 27.599 233.215 29.439V36.5H229.857V34.959C229.182 36.109 227.925 36.684 226.085 36.684C225.134 36.684 224.306 36.523 223.601 36.201C222.911 35.879 222.382 35.4343 222.014 34.867C221.646 34.2997 221.462 33.6557 221.462 32.935C221.462 31.785 221.891 30.8803 222.75 30.221C223.624 29.5617 224.965 29.232 226.775 29.232H229.627C229.627 28.45 229.389 27.852 228.914 27.438C228.438 27.0087 227.725 26.794 226.775 26.794C226.115 26.794 225.464 26.9013 224.82 27.116C224.191 27.3153 223.654 27.5913 223.21 27.944L221.922 25.437C222.596 24.9617 223.401 24.5937 224.337 24.333C225.287 24.0723 226.261 23.942 227.258 23.942ZM226.982 34.269C227.595 34.269 228.139 34.131 228.615 33.855C229.09 33.5637 229.427 33.142 229.627 32.59V31.325H227.166C225.694 31.325 224.958 31.808 224.958 32.774C224.958 33.234 225.134 33.602 225.487 33.878C225.855 34.1387 226.353 34.269 226.982 34.269Z" fill="#2A2A2A"/>
<path d="M100.959 64.614C99.9963 64.614 99.0843 64.462 98.223 64.158C97.3743 63.8413 96.6903 63.4233 96.171 62.904L96.836 61.821C97.2667 62.2643 97.843 62.6317 98.565 62.923C99.2997 63.2143 100.098 63.36 100.959 63.36C102.061 63.36 102.903 63.1193 103.486 62.638C104.081 62.1567 104.379 61.5107 104.379 60.7C104.379 59.8893 104.088 59.2433 103.505 58.762C102.935 58.2807 102.029 58.04 100.788 58.04H99.838V57.033L103.942 51.884L104.132 52.416H96.722V51.2H105.272V52.169L101.168 57.318L100.503 56.881H101.016C102.612 56.881 103.803 57.2357 104.588 57.945C105.386 58.6543 105.785 59.5663 105.785 60.681C105.785 61.4283 105.608 62.0997 105.253 62.695C104.898 63.2903 104.36 63.759 103.638 64.101C102.929 64.443 102.036 64.614 100.959 64.614ZM111.855 51.086C113.033 51.086 114.027 51.352 114.838 51.884C115.648 52.4033 116.263 53.157 116.681 54.145C117.099 55.133 117.308 56.33 117.308 57.736C117.308 59.2307 117.048 60.491 116.529 61.517C116.022 62.543 115.313 63.3157 114.401 63.835C113.489 64.3543 112.431 64.614 111.228 64.614C110.632 64.614 110.062 64.557 109.518 64.443C108.986 64.329 108.504 64.1453 108.074 63.892L108.625 62.79C108.967 63.018 109.359 63.1827 109.803 63.284C110.259 63.3727 110.727 63.417 111.209 63.417C112.64 63.417 113.78 62.961 114.629 62.049C115.49 61.137 115.921 59.7753 115.921 57.964C115.921 57.6727 115.902 57.3243 115.864 56.919C115.838 56.5137 115.769 56.1083 115.655 55.703L116.13 56.064C116.003 56.7227 115.731 57.2863 115.313 57.755C114.907 58.211 114.401 58.5593 113.793 58.8C113.197 59.0407 112.532 59.161 111.798 59.161C110.924 59.161 110.145 58.9963 109.461 58.667C108.789 58.3377 108.264 57.8753 107.884 57.28C107.504 56.6847 107.314 55.9817 107.314 55.171C107.314 54.335 107.51 53.613 107.903 53.005C108.295 52.397 108.834 51.9283 109.518 51.599C110.214 51.257 110.993 51.086 111.855 51.086ZM111.912 52.245C111.278 52.245 110.715 52.3653 110.221 52.606C109.739 52.834 109.359 53.1633 109.081 53.594C108.802 54.0247 108.663 54.5377 108.663 55.133C108.663 56.007 108.96 56.7037 109.556 57.223C110.164 57.7423 110.981 58.002 112.007 58.002C112.691 58.002 113.286 57.8753 113.793 57.622C114.312 57.3687 114.711 57.0203 114.99 56.577C115.281 56.1337 115.427 55.6397 115.427 55.095C115.427 54.601 115.294 54.1387 115.028 53.708C114.762 53.2773 114.369 52.929 113.85 52.663C113.33 52.3843 112.684 52.245 111.912 52.245ZM124.44 68.281C123.528 68.281 122.654 68.148 121.818 67.882C120.982 67.616 120.304 67.236 119.785 66.742L120.469 65.716C120.937 66.134 121.514 66.4633 122.198 66.704C122.894 66.9573 123.629 67.084 124.402 67.084C125.668 67.084 126.599 66.7863 127.195 66.191C127.79 65.6083 128.088 64.6963 128.088 63.455V60.966L128.278 59.256L128.145 57.546V54.525H129.437V63.284C129.437 65.0067 129.012 66.267 128.164 67.065C127.328 67.8757 126.086 68.281 124.44 68.281ZM124.193 64.12C123.243 64.12 122.388 63.9173 121.628 63.512C120.868 63.094 120.266 62.5177 119.823 61.783C119.392 61.0483 119.177 60.206 119.177 59.256C119.177 58.306 119.392 57.47 119.823 56.748C120.266 56.0133 120.868 55.4433 121.628 55.038C122.388 54.6327 123.243 54.43 124.193 54.43C125.079 54.43 125.877 54.6137 126.587 54.981C127.296 55.3483 127.86 55.893 128.278 56.615C128.696 57.337 128.905 58.2173 128.905 59.256C128.905 60.2947 128.696 61.175 128.278 61.897C127.86 62.619 127.296 63.17 126.587 63.55C125.877 63.93 125.079 64.12 124.193 64.12ZM124.326 62.923C125.06 62.923 125.713 62.771 126.283 62.467C126.853 62.1503 127.302 61.7197 127.632 61.175C127.961 60.6177 128.126 59.978 128.126 59.256C128.126 58.534 127.961 57.9007 127.632 57.356C127.302 56.8113 126.853 56.387 126.283 56.083C125.713 55.7663 125.06 55.608 124.326 55.608C123.604 55.608 122.951 55.7663 122.369 56.083C121.799 56.387 121.349 56.8113 121.02 57.356C120.703 57.9007 120.545 58.534 120.545 59.256C120.545 59.978 120.703 60.6177 121.02 61.175C121.349 61.7197 121.799 62.1503 122.369 62.467C122.951 62.771 123.604 62.923 124.326 62.923ZM133.191 64.5V54.525H134.483V57.242L134.35 56.767C134.628 56.007 135.097 55.4307 135.756 55.038C136.414 54.6327 137.231 54.43 138.207 54.43V55.741C138.156 55.741 138.105 55.741 138.055 55.741C138.004 55.7283 137.953 55.722 137.903 55.722C136.851 55.722 136.028 56.045 135.433 56.691C134.837 57.3243 134.54 58.23 134.54 59.408V64.5H133.191ZM146.177 64.5V62.296L146.12 61.935V58.249C146.12 57.4003 145.879 56.748 145.398 56.292C144.929 55.836 144.226 55.608 143.289 55.608C142.643 55.608 142.029 55.7157 141.446 55.931C140.863 56.1463 140.369 56.4313 139.964 56.786L139.356 55.779C139.863 55.3483 140.471 55.019 141.18 54.791C141.889 54.5503 142.637 54.43 143.422 54.43C144.714 54.43 145.708 54.753 146.405 55.399C147.114 56.0323 147.469 57.0013 147.469 58.306V64.5H146.177ZM142.738 64.595C141.991 64.595 141.338 64.4747 140.781 64.234C140.236 63.9807 139.818 63.6387 139.527 63.208C139.236 62.7647 139.09 62.258 139.09 61.688C139.09 61.1687 139.21 60.7 139.451 60.282C139.704 59.8513 140.11 59.5093 140.667 59.256C141.237 58.99 141.997 58.857 142.947 58.857H146.386V59.864H142.985C142.022 59.864 141.351 60.035 140.971 60.377C140.604 60.719 140.42 61.1433 140.42 61.65C140.42 62.22 140.642 62.676 141.085 63.018C141.528 63.36 142.149 63.531 142.947 63.531C143.707 63.531 144.359 63.36 144.904 63.018C145.461 62.6633 145.867 62.1567 146.12 61.498L146.424 62.429C146.171 63.0877 145.727 63.6133 145.094 64.006C144.473 64.3987 143.688 64.595 142.738 64.595ZM156.225 54.43C157.036 54.43 157.745 54.5883 158.353 54.905C158.974 55.209 159.455 55.6777 159.797 56.311C160.152 56.9443 160.329 57.7423 160.329 58.705V64.5H158.98V58.838C158.98 57.7867 158.714 56.995 158.182 56.463C157.663 55.9183 156.928 55.646 155.978 55.646C155.269 55.646 154.648 55.7917 154.116 56.083C153.597 56.3617 153.191 56.7733 152.9 57.318C152.621 57.85 152.482 58.496 152.482 59.256V64.5H151.133V54.525H152.425V57.261L152.216 56.748C152.533 56.026 153.039 55.4623 153.736 55.057C154.433 54.639 155.262 54.43 156.225 54.43ZM163.973 64.5V54.525H165.322V64.5H163.973ZM164.657 52.321C164.378 52.321 164.144 52.226 163.954 52.036C163.764 51.846 163.669 51.618 163.669 51.352C163.669 51.086 163.764 50.8643 163.954 50.687C164.144 50.497 164.378 50.402 164.657 50.402C164.935 50.402 165.17 50.4907 165.36 50.668C165.55 50.8453 165.645 51.067 165.645 51.333C165.645 51.6117 165.55 51.846 165.36 52.036C165.182 52.226 164.948 52.321 164.657 52.321ZM173.217 64.595C172.229 64.595 171.343 64.3797 170.557 63.949C169.785 63.5057 169.177 62.904 168.733 62.144C168.29 61.3713 168.068 60.491 168.068 59.503C168.068 58.5023 168.29 57.622 168.733 56.862C169.177 56.102 169.785 55.5067 170.557 55.076C171.343 54.6453 172.229 54.43 173.217 54.43C174.066 54.43 174.832 54.5947 175.516 54.924C176.2 55.2533 176.739 55.7473 177.131 56.406L176.124 57.09C175.782 56.5833 175.358 56.2097 174.851 55.969C174.345 55.7283 173.794 55.608 173.198 55.608C172.489 55.608 171.849 55.7727 171.279 56.102C170.709 56.4187 170.26 56.8683 169.93 57.451C169.601 58.0337 169.436 58.7177 169.436 59.503C169.436 60.2883 169.601 60.9723 169.93 61.555C170.26 62.1377 170.709 62.5937 171.279 62.923C171.849 63.2397 172.489 63.398 173.198 63.398C173.794 63.398 174.345 63.2777 174.851 63.037C175.358 62.7963 175.782 62.429 176.124 61.935L177.131 62.619C176.739 63.265 176.2 63.759 175.516 64.101C174.832 64.4303 174.066 64.595 173.217 64.595ZM186.032 64.5V62.296L185.975 61.935V58.249C185.975 57.4003 185.735 56.748 185.253 56.292C184.785 55.836 184.082 55.608 183.144 55.608C182.498 55.608 181.884 55.7157 181.301 55.931C180.719 56.1463 180.225 56.4313 179.819 56.786L179.211 55.779C179.718 55.3483 180.326 55.019 181.035 54.791C181.745 54.5503 182.492 54.43 183.277 54.43C184.569 54.43 185.564 54.753 186.26 55.399C186.97 56.0323 187.324 57.0013 187.324 58.306V64.5H186.032ZM182.593 64.595C181.846 64.595 181.194 64.4747 180.636 64.234C180.092 63.9807 179.674 63.6387 179.382 63.208C179.091 62.7647 178.945 62.258 178.945 61.688C178.945 61.1687 179.066 60.7 179.306 60.282C179.56 59.8513 179.965 59.5093 180.522 59.256C181.092 58.99 181.852 58.857 182.802 58.857H186.241V59.864H182.84C181.878 59.864 181.206 60.035 180.826 60.377C180.459 60.719 180.275 61.1433 180.275 61.65C180.275 62.22 180.497 62.676 180.94 63.018C181.384 63.36 182.004 63.531 182.802 63.531C183.562 63.531 184.215 63.36 184.759 63.018C185.317 62.6633 185.722 62.1567 185.975 61.498L186.279 62.429C186.026 63.0877 185.583 63.6133 184.949 64.006C184.329 64.3987 183.543 64.595 182.593 64.595ZM191.121 64.595C190.843 64.595 190.602 64.4937 190.399 64.291C190.209 64.0883 190.114 63.8413 190.114 63.55C190.114 63.246 190.209 62.999 190.399 62.809C190.602 62.619 190.843 62.524 191.121 62.524C191.4 62.524 191.634 62.619 191.824 62.809C192.027 62.999 192.128 63.246 192.128 63.55C192.128 63.8413 192.027 64.0883 191.824 64.291C191.634 64.4937 191.4 64.595 191.121 64.595ZM195.015 64.5V54.525H196.307V57.242L196.174 56.767C196.452 56.007 196.921 55.4307 197.58 55.038C198.238 54.6327 199.055 54.43 200.031 54.43V55.741C199.98 55.741 199.929 55.741 199.879 55.741C199.828 55.7283 199.777 55.722 199.727 55.722C198.675 55.722 197.852 56.045 197.257 56.691C196.661 57.3243 196.364 58.23 196.364 59.408V64.5H195.015ZM206.764 64.595C205.915 64.595 205.174 64.4367 204.541 64.12C203.907 63.8033 203.413 63.3283 203.059 62.695C202.717 62.0617 202.546 61.27 202.546 60.32V54.525H203.895V60.168C203.895 61.232 204.154 62.0363 204.674 62.581C205.206 63.113 205.947 63.379 206.897 63.379C207.593 63.379 208.195 63.2397 208.702 62.961C209.221 62.6697 209.614 62.2517 209.88 61.707C210.158 61.1623 210.298 60.51 210.298 59.75V54.525H211.647V64.5H210.355V61.764L210.564 62.258C210.247 62.9927 209.753 63.569 209.082 63.987C208.423 64.3923 207.65 64.595 206.764 64.595Z" fill="#9A9A9A"/>
</svg>
