<svg width="216" height="50" viewBox="0 0 216 50" fill="none" xmlns="http://www.w3.org/2000/svg">
<g clip-path="url(#clip0_2015_78)">
<mask id="mask0_2015_78" style="mask-type:luminance" maskUnits="userSpaceOnUse" x="0" y="0" width="50" height="50">
<path d="M50 0H0V50H50V0Z" fill="white"/>
</mask>
<g mask="url(#mask0_2015_78)">
<path d="M38.8888 12.963H25.9258V24.0741H38.8888V12.963Z" fill="#FFB800"/>
<mask id="mask1_2015_78" style="mask-type:luminance" maskUnits="userSpaceOnUse" x="0" y="0" width="50" height="50">
<path d="M0 0H50V50H0V0Z" fill="white"/>
</mask>
<g mask="url(#mask1_2015_78)">
<path d="M34.681 43.6819C36.0151 42.1241 37.1835 40.2687 38.127 38.1581H41.4204C39.5901 40.4384 37.2966 42.3241 34.681 43.6819ZM8.57956 38.1581H11.873C12.8151 40.2687 13.9848 42.1241 15.319 43.6819C12.7019 42.3241 10.4098 40.4384 8.57956 38.1581ZM15.319 6.31736C13.9848 7.87527 12.8151 9.73052 11.873 11.8424H8.57956C10.4098 9.56077 12.7032 7.67658 15.319 6.31736ZM41.4204 11.8424H38.127C37.1835 9.73052 36.0151 7.87527 34.681 6.31736C37.2966 7.67527 39.5901 9.56077 41.4204 11.8424ZM40.7454 23.6845C40.6241 20.3871 40.0585 17.2752 39.1295 14.4739H43.2126C44.8007 17.2134 45.7795 20.341 45.986 23.6845H40.7454ZM40.7454 26.316H45.986C45.7795 29.6595 44.8007 32.7859 43.2126 35.5265H39.1295C40.0585 32.7253 40.6241 29.6134 40.7454 26.316ZM26.3164 35.5265V26.316H38.1163C37.9876 29.6595 37.3757 32.7859 36.3835 35.5265H26.3164ZM26.3164 45.9462V38.1581H35.2626C33.1098 42.4515 29.9309 45.3712 26.3164 45.9462ZM23.6848 38.1581V45.9462C20.0704 45.3712 16.8901 42.4515 14.7375 38.1581H23.6848ZM11.8835 26.316H23.6848V35.5265H13.6164C12.6243 32.7859 12.0125 29.6595 11.8835 26.316ZM9.25456 23.6845H4.01377C4.22168 20.341 5.19931 17.2134 6.78615 14.4739H10.8717C9.9414 17.2752 9.37693 20.3871 9.25456 23.6845ZM23.6848 14.4739V23.6845H11.8835C12.0125 20.341 12.6243 17.2147 13.6164 14.4739H23.6848ZM23.6848 4.05289V11.8424H14.7375C16.8914 7.54761 20.0704 4.62789 23.6848 4.05289ZM36.3835 14.4739C37.3757 17.2147 37.9876 20.341 38.1163 23.6845H26.3164V14.4739H36.3835ZM26.3164 11.8424V4.05289C29.9309 4.62789 33.1085 7.54761 35.261 11.8424H26.3164ZM4.01377 26.316H9.25456C9.37562 29.6134 9.9414 32.7253 10.8717 35.5265H6.78615C5.19931 32.7859 4.22168 29.6595 4.01377 26.316ZM25.0006 1.31604C11.9204 1.31604 1.31641 11.92 1.31641 25.0002C1.31641 38.0806 11.9204 48.6844 25.0006 48.6844C38.081 48.6844 48.6848 38.0806 48.6848 25.0002C48.6848 11.92 38.081 1.31604 25.0006 1.31604Z" fill="white"/>
</g>
</g>
</g>
<path d="M71.862 21.322H70.836L70.566 19H61.53V6.4H63.024V17.668H68.694V6.4H70.188V17.668H71.862V21.322ZM79.8915 18.28C79.5315 18.568 79.0755 18.796 78.5235 18.964C77.9835 19.132 77.4075 19.216 76.7955 19.216C76.1115 19.216 75.5175 19.108 75.0135 18.892C74.5095 18.664 74.0955 18.346 73.7715 17.938C73.4475 17.518 73.2075 17.02 73.0515 16.444C72.8955 15.868 72.8175 15.22 72.8175 14.5C72.8175 12.964 73.1595 11.794 73.8435 10.99C74.5275 10.186 75.5055 9.784 76.7775 9.784C77.1855 9.784 77.5935 9.832 78.0015 9.928C78.4095 10.012 78.7755 10.18 79.0995 10.432C79.4235 10.684 79.6875 11.044 79.8915 11.512C80.0955 11.968 80.1975 12.574 80.1975 13.33C80.1975 13.726 80.1615 14.164 80.0895 14.644H74.3115C74.3115 15.172 74.3655 15.64 74.4735 16.048C74.5815 16.456 74.7495 16.804 74.9775 17.092C75.2055 17.368 75.4995 17.584 75.8595 17.74C76.2315 17.884 76.6815 17.956 77.2095 17.956C77.6175 17.956 78.0255 17.884 78.4335 17.74C78.8415 17.596 79.1475 17.428 79.3515 17.236L79.8915 18.28ZM76.7955 11.044C76.0875 11.044 75.5175 11.23 75.0855 11.602C74.6655 11.974 74.4135 12.61 74.3295 13.51H78.7935C78.7935 12.598 78.6195 11.962 78.2715 11.602C77.9235 11.23 77.4315 11.044 76.7955 11.044ZM87.9702 15.022H83.9022V19H82.4622V10H83.9022V13.762H87.9702V10H89.4102V19H87.9702V15.022ZM97.9249 11.26H95.0989V19H93.6589V11.26H90.8329V10H97.9249V11.26ZM99.3548 10H100.345L100.615 11.08H100.687C100.963 10.66 101.317 10.342 101.749 10.126C102.193 9.898 102.697 9.784 103.261 9.784C104.461 9.784 105.355 10.138 105.943 10.846C106.531 11.554 106.825 12.712 106.825 14.32C106.825 15.076 106.723 15.76 106.519 16.372C106.327 16.972 106.051 17.482 105.691 17.902C105.331 18.322 104.893 18.646 104.377 18.874C103.873 19.102 103.309 19.216 102.685 19.216C102.241 19.216 101.887 19.186 101.623 19.126C101.371 19.078 101.095 18.988 100.795 18.856V22.6H99.3548V10ZM102.991 11.044C102.379 11.044 101.893 11.206 101.533 11.53C101.185 11.842 100.939 12.322 100.795 12.97V17.434C101.011 17.602 101.257 17.734 101.533 17.83C101.809 17.914 102.175 17.956 102.631 17.956C103.459 17.956 104.113 17.65 104.593 17.038C105.085 16.414 105.331 15.502 105.331 14.302C105.331 13.81 105.289 13.366 105.205 12.97C105.121 12.562 104.983 12.22 104.791 11.944C104.611 11.656 104.371 11.434 104.071 11.278C103.783 11.122 103.423 11.044 102.991 11.044ZM120.03 18.406C119.67 18.67 119.244 18.868 118.752 19C118.26 19.144 117.744 19.216 117.204 19.216C116.508 19.216 115.92 19.108 115.44 18.892C114.96 18.664 114.564 18.346 114.252 17.938C113.952 17.518 113.73 17.02 113.586 16.444C113.454 15.856 113.388 15.208 113.388 14.5C113.388 12.976 113.724 11.812 114.396 11.008C115.068 10.192 116.034 9.784 117.294 9.784C117.87 9.784 118.356 9.832 118.752 9.928C119.16 10.012 119.526 10.138 119.85 10.306L119.436 11.548C119.16 11.392 118.854 11.272 118.518 11.188C118.182 11.092 117.822 11.044 117.438 11.044C115.734 11.044 114.882 12.196 114.882 14.5C114.882 14.956 114.924 15.394 115.008 15.814C115.104 16.222 115.254 16.588 115.458 16.912C115.674 17.224 115.95 17.476 116.286 17.668C116.634 17.86 117.06 17.956 117.564 17.956C117.996 17.956 118.38 17.89 118.716 17.758C119.064 17.626 119.346 17.476 119.562 17.308L120.03 18.406ZM127.474 11.26H124.648V19H123.208V11.26H120.382V10H127.474V11.26ZM128.904 10H129.894L130.164 11.08H130.236C130.512 10.66 130.866 10.342 131.298 10.126C131.742 9.898 132.246 9.784 132.81 9.784C134.01 9.784 134.904 10.138 135.492 10.846C136.08 11.554 136.374 12.712 136.374 14.32C136.374 15.076 136.272 15.76 136.068 16.372C135.876 16.972 135.6 17.482 135.24 17.902C134.88 18.322 134.442 18.646 133.926 18.874C133.422 19.102 132.858 19.216 132.234 19.216C131.79 19.216 131.436 19.186 131.172 19.126C130.92 19.078 130.644 18.988 130.344 18.856V22.6H128.904V10ZM132.54 11.044C131.928 11.044 131.442 11.206 131.082 11.53C130.734 11.842 130.488 12.322 130.344 12.97V17.434C130.56 17.602 130.806 17.734 131.082 17.83C131.358 17.914 131.724 17.956 132.18 17.956C133.008 17.956 133.662 17.65 134.142 17.038C134.634 16.414 134.88 15.502 134.88 14.302C134.88 13.81 134.838 13.366 134.754 12.97C134.67 12.562 134.532 12.22 134.34 11.944C134.16 11.656 133.92 11.434 133.62 11.278C133.332 11.122 132.972 11.044 132.54 11.044ZM138.498 10.666C138.954 10.39 139.482 10.186 140.082 10.054C140.694 9.922 141.33 9.856 141.99 9.856C142.614 9.856 143.112 9.94 143.484 10.108C143.868 10.276 144.156 10.498 144.348 10.774C144.552 11.038 144.684 11.332 144.744 11.656C144.816 11.98 144.852 12.304 144.852 12.628C144.852 13.348 144.834 14.05 144.798 14.734C144.762 15.418 144.744 16.066 144.744 16.678C144.744 17.122 144.762 17.542 144.798 17.938C144.834 18.334 144.9 18.7 144.996 19.036H143.934L143.556 17.776H143.466C143.358 17.944 143.22 18.112 143.052 18.28C142.896 18.436 142.704 18.58 142.476 18.712C142.248 18.832 141.984 18.934 141.684 19.018C141.384 19.102 141.042 19.144 140.658 19.144C140.274 19.144 139.914 19.084 139.578 18.964C139.254 18.844 138.972 18.676 138.732 18.46C138.492 18.232 138.3 17.962 138.156 17.65C138.024 17.338 137.958 16.984 137.958 16.588C137.958 16.06 138.066 15.622 138.282 15.274C138.498 14.914 138.798 14.632 139.182 14.428C139.578 14.212 140.046 14.062 140.586 13.978C141.138 13.882 141.744 13.834 142.404 13.834C142.572 13.834 142.734 13.834 142.89 13.834C143.058 13.834 143.226 13.846 143.394 13.87C143.43 13.51 143.448 13.186 143.448 12.898C143.448 12.238 143.316 11.776 143.052 11.512C142.788 11.248 142.308 11.116 141.612 11.116C141.408 11.116 141.186 11.134 140.946 11.17C140.718 11.194 140.478 11.236 140.226 11.296C139.986 11.344 139.752 11.41 139.524 11.494C139.308 11.566 139.116 11.65 138.948 11.746L138.498 10.666ZM141.054 17.884C141.39 17.884 141.69 17.842 141.954 17.758C142.218 17.662 142.446 17.548 142.638 17.416C142.83 17.272 142.986 17.116 143.106 16.948C143.238 16.78 143.334 16.618 143.394 16.462V14.968C143.226 14.956 143.052 14.95 142.872 14.95C142.704 14.938 142.536 14.932 142.368 14.932C141.996 14.932 141.63 14.956 141.27 15.004C140.922 15.04 140.61 15.118 140.334 15.238C140.07 15.346 139.854 15.502 139.686 15.706C139.53 15.898 139.452 16.144 139.452 16.444C139.452 16.864 139.602 17.212 139.902 17.488C140.202 17.752 140.586 17.884 141.054 17.884ZM149.93 14.392L146.906 10H148.67L150.38 12.484L150.884 13.51L151.406 12.484L153.152 10H154.772L151.73 14.32L154.952 19H153.242L151.334 16.264L150.794 15.184L150.236 16.264L148.292 19H146.69L149.93 14.392ZM155.927 14.5C155.927 12.976 156.263 11.812 156.935 11.008C157.619 10.192 158.597 9.784 159.869 9.784C160.541 9.784 161.123 9.898 161.615 10.126C162.119 10.342 162.533 10.66 162.857 11.08C163.181 11.488 163.421 11.986 163.577 12.574C163.733 13.15 163.811 13.792 163.811 14.5C163.811 16.024 163.469 17.194 162.785 18.01C162.113 18.814 161.141 19.216 159.869 19.216C159.197 19.216 158.609 19.108 158.105 18.892C157.613 18.664 157.205 18.346 156.881 17.938C156.557 17.518 156.317 17.02 156.161 16.444C156.005 15.856 155.927 15.208 155.927 14.5ZM157.421 14.5C157.421 14.956 157.463 15.394 157.547 15.814C157.643 16.234 157.787 16.6 157.979 16.912C158.171 17.224 158.423 17.476 158.735 17.668C159.047 17.86 159.425 17.956 159.869 17.956C161.501 17.968 162.317 16.816 162.317 14.5C162.317 14.032 162.269 13.588 162.173 13.168C162.089 12.748 161.951 12.382 161.759 12.07C161.567 11.758 161.315 11.512 161.003 11.332C160.691 11.14 160.313 11.044 159.869 11.044C158.237 11.032 157.421 12.184 157.421 14.5ZM166.081 10.018C166.501 9.994 166.939 9.964 167.395 9.928C167.863 9.892 168.439 9.874 169.123 9.874C170.311 9.874 171.163 10.06 171.679 10.432C172.195 10.792 172.453 11.344 172.453 12.088C172.453 12.508 172.327 12.922 172.075 13.33C171.835 13.726 171.433 14.02 170.869 14.212V14.284C171.577 14.416 172.075 14.662 172.363 15.022C172.651 15.382 172.795 15.862 172.795 16.462C172.795 17.398 172.459 18.076 171.787 18.496C171.115 18.916 170.107 19.126 168.763 19.126C168.259 19.126 167.791 19.108 167.359 19.072C166.927 19.048 166.501 19.018 166.081 18.982V10.018ZM167.521 17.794C167.749 17.818 167.971 17.836 168.187 17.848C168.415 17.86 168.679 17.866 168.979 17.866C169.783 17.866 170.377 17.752 170.761 17.524C171.157 17.296 171.355 16.906 171.355 16.354C171.355 15.922 171.187 15.574 170.851 15.31C170.527 15.034 169.945 14.896 169.105 14.896H167.521V17.794ZM169.285 13.798C169.501 13.798 169.711 13.762 169.915 13.69C170.119 13.618 170.299 13.522 170.455 13.402C170.623 13.27 170.755 13.12 170.851 12.952C170.959 12.784 171.013 12.604 171.013 12.412C171.013 11.932 170.869 11.602 170.581 11.422C170.293 11.23 169.789 11.134 169.069 11.134C168.685 11.134 168.379 11.14 168.151 11.152C167.935 11.164 167.725 11.176 167.521 11.188V13.798H169.285ZM174.92 10.666C175.376 10.39 175.904 10.186 176.504 10.054C177.116 9.922 177.752 9.856 178.412 9.856C179.036 9.856 179.534 9.94 179.906 10.108C180.29 10.276 180.578 10.498 180.77 10.774C180.974 11.038 181.106 11.332 181.166 11.656C181.238 11.98 181.274 12.304 181.274 12.628C181.274 13.348 181.256 14.05 181.22 14.734C181.184 15.418 181.166 16.066 181.166 16.678C181.166 17.122 181.184 17.542 181.22 17.938C181.256 18.334 181.322 18.7 181.418 19.036H180.356L179.978 17.776H179.888C179.78 17.944 179.642 18.112 179.474 18.28C179.318 18.436 179.126 18.58 178.898 18.712C178.67 18.832 178.406 18.934 178.106 19.018C177.806 19.102 177.464 19.144 177.08 19.144C176.696 19.144 176.336 19.084 176 18.964C175.676 18.844 175.394 18.676 175.154 18.46C174.914 18.232 174.722 17.962 174.578 17.65C174.446 17.338 174.38 16.984 174.38 16.588C174.38 16.06 174.488 15.622 174.704 15.274C174.92 14.914 175.22 14.632 175.604 14.428C176 14.212 176.468 14.062 177.008 13.978C177.56 13.882 178.166 13.834 178.826 13.834C178.994 13.834 179.156 13.834 179.312 13.834C179.48 13.834 179.648 13.846 179.816 13.87C179.852 13.51 179.87 13.186 179.87 12.898C179.87 12.238 179.738 11.776 179.474 11.512C179.21 11.248 178.73 11.116 178.034 11.116C177.83 11.116 177.608 11.134 177.368 11.17C177.14 11.194 176.9 11.236 176.648 11.296C176.408 11.344 176.174 11.41 175.946 11.494C175.73 11.566 175.538 11.65 175.37 11.746L174.92 10.666ZM177.476 17.884C177.812 17.884 178.112 17.842 178.376 17.758C178.64 17.662 178.868 17.548 179.06 17.416C179.252 17.272 179.408 17.116 179.528 16.948C179.66 16.78 179.756 16.618 179.816 16.462V14.968C179.648 14.956 179.474 14.95 179.294 14.95C179.126 14.938 178.958 14.932 178.79 14.932C178.418 14.932 178.052 14.956 177.692 15.004C177.344 15.04 177.032 15.118 176.756 15.238C176.492 15.346 176.276 15.502 176.108 15.706C175.952 15.898 175.874 16.144 175.874 16.444C175.874 16.864 176.024 17.212 176.324 17.488C176.624 17.752 177.008 17.884 177.476 17.884ZM189.501 15.022H185.433V19H183.993V10H185.433V13.762H189.501V10H190.941V19H189.501V15.022ZM199.33 13.672L199.384 12.556H199.33L198.592 13.708L194.542 19H193.714V10H195.154V15.49L195.1 16.552H195.172L195.874 15.436L199.924 10H200.77V19H199.33V13.672ZM208.022 15.274L206.636 15.49L204.26 19H202.514L204.674 15.922L205.394 15.256C204.77 15.16 204.236 14.908 203.792 14.5C203.36 14.092 203.144 13.54 203.144 12.844C203.144 12.304 203.234 11.842 203.414 11.458C203.606 11.074 203.876 10.756 204.224 10.504C204.572 10.252 204.986 10.072 205.466 9.964C205.946 9.844 206.486 9.784 207.086 9.784C207.53 9.784 207.944 9.814 208.328 9.874C208.712 9.934 209.09 10 209.462 10.072V19H208.022V15.274ZM208.022 11.224C207.866 11.164 207.692 11.122 207.5 11.098C207.308 11.062 207.14 11.044 206.996 11.044C206.228 11.044 205.64 11.182 205.232 11.458C204.836 11.734 204.638 12.172 204.638 12.772C204.638 13.312 204.848 13.732 205.268 14.032C205.7 14.32 206.264 14.464 206.96 14.464C206.972 14.464 206.99 14.464 207.014 14.464C207.038 14.464 207.086 14.464 207.158 14.464C207.23 14.464 207.332 14.464 207.464 14.464C207.596 14.452 207.782 14.44 208.022 14.428V11.224Z" fill="white"/>
<path d="M67.956 33.596H63.546V44H61.08V31.4H70.422V44H67.956V33.596ZM72.0901 39.5C72.0901 37.976 72.4621 36.806 73.2061 35.99C73.9501 35.162 74.9941 34.748 76.3381 34.748C77.0581 34.748 77.6821 34.862 78.2101 35.09C78.7381 35.318 79.1761 35.642 79.5241 36.062C79.8721 36.47 80.1301 36.968 80.2981 37.556C80.4781 38.144 80.5681 38.792 80.5681 39.5C80.5681 41.024 80.1961 42.2 79.4521 43.028C78.7201 43.844 77.6821 44.252 76.3381 44.252C75.6181 44.252 74.9941 44.138 74.4661 43.91C73.9381 43.682 73.4941 43.364 73.1341 42.956C72.7861 42.536 72.5221 42.032 72.3421 41.444C72.1741 40.856 72.0901 40.208 72.0901 39.5ZM74.5021 39.5C74.5021 39.896 74.5381 40.262 74.6101 40.598C74.6821 40.934 74.7901 41.228 74.9341 41.48C75.0781 41.732 75.2641 41.93 75.4921 42.074C75.7321 42.206 76.0141 42.272 76.3381 42.272C76.9501 42.272 77.4061 42.05 77.7061 41.606C78.0061 41.162 78.1561 40.46 78.1561 39.5C78.1561 38.672 78.0181 38.006 77.7421 37.502C77.4661 36.986 76.9981 36.728 76.3381 36.728C75.7621 36.728 75.3121 36.944 74.9881 37.376C74.6641 37.808 74.5021 38.516 74.5021 39.5ZM87.0861 37.07H85.3041C85.2321 37.922 85.1481 38.768 85.0521 39.608C84.9561 40.448 84.8001 41.204 84.5841 41.876C84.3801 42.536 84.0981 43.076 83.7381 43.496C83.3781 43.904 82.9101 44.108 82.3341 44.108C81.6381 44.108 81.1461 44.018 80.8581 43.838L81.1461 41.894C81.3381 41.966 81.5181 42.002 81.6861 42.002C81.9261 42.002 82.1361 41.9 82.3161 41.696C82.4961 41.492 82.6461 41.126 82.7661 40.598C82.8981 40.07 83.0001 39.356 83.0721 38.456C83.1561 37.544 83.2161 36.392 83.2521 35H89.4261V44H87.0861V37.07ZM96.8717 39.896L96.9617 38.618H96.9077L96.1337 39.932L92.9297 44H91.4537V35H93.7937V39.284L93.6857 40.508H93.7577L94.4957 39.23L97.7357 35H99.2117V44H96.8717V39.896ZM107.634 43.442C107.274 43.706 106.836 43.904 106.32 44.036C105.816 44.18 105.294 44.252 104.754 44.252C104.034 44.252 103.422 44.138 102.918 43.91C102.426 43.682 102.024 43.364 101.712 42.956C101.4 42.536 101.172 42.032 101.028 41.444C100.896 40.856 100.83 40.208 100.83 39.5C100.83 37.976 101.172 36.806 101.856 35.99C102.54 35.162 103.536 34.748 104.844 34.748C105.504 34.748 106.032 34.802 106.428 34.91C106.836 35.018 107.202 35.156 107.526 35.324L106.968 37.232C106.692 37.1 106.416 36.998 106.14 36.926C105.876 36.854 105.57 36.818 105.222 36.818C104.574 36.818 104.082 37.034 103.746 37.466C103.41 37.886 103.242 38.564 103.242 39.5C103.242 39.884 103.284 40.238 103.368 40.562C103.452 40.886 103.578 41.168 103.746 41.408C103.914 41.648 104.13 41.84 104.394 41.984C104.67 42.116 104.988 42.182 105.348 42.182C105.744 42.182 106.08 42.134 106.356 42.038C106.632 41.93 106.878 41.804 107.094 41.66L107.634 43.442ZM116.692 38.168H115.846V44H114.352V31.4H115.846V37.268L116.656 37.016L120.886 31.4H122.614L118.402 36.818L117.646 37.412L118.564 38.132L123.172 44H121.282L116.692 38.168ZM125.051 35.666C125.507 35.39 126.035 35.186 126.635 35.054C127.247 34.922 127.883 34.856 128.543 34.856C129.167 34.856 129.665 34.94 130.037 35.108C130.421 35.276 130.709 35.498 130.901 35.774C131.105 36.038 131.237 36.332 131.297 36.656C131.369 36.98 131.405 37.304 131.405 37.628C131.405 38.348 131.387 39.05 131.351 39.734C131.315 40.418 131.297 41.066 131.297 41.678C131.297 42.122 131.315 42.542 131.351 42.938C131.387 43.334 131.453 43.7 131.549 44.036H130.487L130.109 42.776H130.019C129.911 42.944 129.773 43.112 129.605 43.28C129.449 43.436 129.257 43.58 129.029 43.712C128.801 43.832 128.537 43.934 128.237 44.018C127.937 44.102 127.595 44.144 127.211 44.144C126.827 44.144 126.467 44.084 126.131 43.964C125.807 43.844 125.525 43.676 125.285 43.46C125.045 43.232 124.853 42.962 124.709 42.65C124.577 42.338 124.511 41.984 124.511 41.588C124.511 41.06 124.619 40.622 124.835 40.274C125.051 39.914 125.351 39.632 125.735 39.428C126.131 39.212 126.599 39.062 127.139 38.978C127.691 38.882 128.297 38.834 128.957 38.834C129.125 38.834 129.287 38.834 129.443 38.834C129.611 38.834 129.779 38.846 129.947 38.87C129.983 38.51 130.001 38.186 130.001 37.898C130.001 37.238 129.869 36.776 129.605 36.512C129.341 36.248 128.861 36.116 128.165 36.116C127.961 36.116 127.739 36.134 127.499 36.17C127.271 36.194 127.031 36.236 126.779 36.296C126.539 36.344 126.305 36.41 126.077 36.494C125.861 36.566 125.669 36.65 125.501 36.746L125.051 35.666ZM127.607 42.884C127.943 42.884 128.243 42.842 128.507 42.758C128.771 42.662 128.999 42.548 129.191 42.416C129.383 42.272 129.539 42.116 129.659 41.948C129.791 41.78 129.887 41.618 129.947 41.462V39.968C129.779 39.956 129.605 39.95 129.425 39.95C129.257 39.938 129.089 39.932 128.921 39.932C128.549 39.932 128.183 39.956 127.823 40.004C127.475 40.04 127.163 40.118 126.887 40.238C126.623 40.346 126.407 40.502 126.239 40.706C126.083 40.898 126.005 41.144 126.005 41.444C126.005 41.864 126.155 42.212 126.455 42.488C126.755 42.752 127.139 42.884 127.607 42.884ZM138.966 36.26H136.356C136.32 36.764 136.284 37.31 136.248 37.898C136.212 38.474 136.158 39.056 136.086 39.644C136.014 40.22 135.918 40.778 135.798 41.318C135.678 41.846 135.522 42.314 135.33 42.722C135.15 43.13 134.922 43.46 134.646 43.712C134.382 43.952 134.064 44.072 133.692 44.072C133.464 44.072 133.266 44.06 133.098 44.036C132.93 44.012 132.78 43.97 132.648 43.91L132.864 42.704C133.008 42.752 133.164 42.776 133.332 42.776C133.572 42.776 133.788 42.674 133.98 42.47C134.172 42.266 134.34 41.882 134.484 41.318C134.628 40.742 134.748 39.95 134.844 38.942C134.94 37.934 135.006 36.62 135.042 35H140.406V44H138.966V36.26ZM148.793 38.672L148.847 37.556H148.793L148.055 38.708L144.005 44H143.177V35H144.617V40.49L144.563 41.552H144.635L145.337 40.436L149.387 35H150.233V44H148.793V38.672ZM158.511 40.022H154.443V44H153.003V35H154.443V38.762H158.511V35H159.951V44H158.511V40.022ZM168.34 38.672L168.394 37.556H168.34L167.602 38.708L163.552 44H162.724V35H164.164V40.49L164.11 41.552H164.182L164.884 40.436L168.934 35H169.78V44H168.34V38.672ZM178.058 40.022H173.99V44H172.55V35H173.99V38.762H178.058V35H179.498V44H178.058V40.022ZM187.527 36.26H183.711V44H182.271V35H187.527V36.26ZM188.915 35H189.905L190.175 36.08H190.247C190.523 35.66 190.877 35.342 191.309 35.126C191.753 34.898 192.257 34.784 192.821 34.784C194.021 34.784 194.915 35.138 195.503 35.846C196.091 36.554 196.385 37.712 196.385 39.32C196.385 40.076 196.283 40.76 196.079 41.372C195.887 41.972 195.611 42.482 195.251 42.902C194.891 43.322 194.453 43.646 193.937 43.874C193.433 44.102 192.869 44.216 192.245 44.216C191.801 44.216 191.447 44.186 191.183 44.126C190.931 44.078 190.655 43.988 190.355 43.856V47.6H188.915V35ZM192.551 36.044C191.939 36.044 191.453 36.206 191.093 36.53C190.745 36.842 190.499 37.322 190.355 37.97V42.434C190.571 42.602 190.817 42.734 191.093 42.83C191.369 42.914 191.735 42.956 192.191 42.956C193.019 42.956 193.673 42.65 194.153 42.038C194.645 41.414 194.891 40.502 194.891 39.302C194.891 38.81 194.849 38.366 194.765 37.97C194.681 37.562 194.543 37.22 194.351 36.944C194.171 36.656 193.931 36.434 193.631 36.278C193.343 36.122 192.983 36.044 192.551 36.044ZM198.51 35.666C198.966 35.39 199.494 35.186 200.094 35.054C200.706 34.922 201.342 34.856 202.002 34.856C202.626 34.856 203.124 34.94 203.496 35.108C203.88 35.276 204.168 35.498 204.36 35.774C204.564 36.038 204.696 36.332 204.756 36.656C204.828 36.98 204.864 37.304 204.864 37.628C204.864 38.348 204.846 39.05 204.81 39.734C204.774 40.418 204.756 41.066 204.756 41.678C204.756 42.122 204.774 42.542 204.81 42.938C204.846 43.334 204.912 43.7 205.008 44.036H203.946L203.568 42.776H203.478C203.37 42.944 203.232 43.112 203.064 43.28C202.908 43.436 202.716 43.58 202.488 43.712C202.26 43.832 201.996 43.934 201.696 44.018C201.396 44.102 201.054 44.144 200.67 44.144C200.286 44.144 199.926 44.084 199.59 43.964C199.266 43.844 198.984 43.676 198.744 43.46C198.504 43.232 198.312 42.962 198.168 42.65C198.036 42.338 197.97 41.984 197.97 41.588C197.97 41.06 198.078 40.622 198.294 40.274C198.51 39.914 198.81 39.632 199.194 39.428C199.59 39.212 200.058 39.062 200.598 38.978C201.15 38.882 201.756 38.834 202.416 38.834C202.584 38.834 202.746 38.834 202.902 38.834C203.07 38.834 203.238 38.846 203.406 38.87C203.442 38.51 203.46 38.186 203.46 37.898C203.46 37.238 203.328 36.776 203.064 36.512C202.8 36.248 202.32 36.116 201.624 36.116C201.42 36.116 201.198 36.134 200.958 36.17C200.73 36.194 200.49 36.236 200.238 36.296C199.998 36.344 199.764 36.41 199.536 36.494C199.32 36.566 199.128 36.65 198.96 36.746L198.51 35.666ZM201.066 42.884C201.402 42.884 201.702 42.842 201.966 42.758C202.23 42.662 202.458 42.548 202.65 42.416C202.842 42.272 202.998 42.116 203.118 41.948C203.25 41.78 203.346 41.618 203.406 41.462V39.968C203.238 39.956 203.064 39.95 202.884 39.95C202.716 39.938 202.548 39.932 202.38 39.932C202.008 39.932 201.642 39.956 201.282 40.004C200.934 40.04 200.622 40.118 200.346 40.238C200.082 40.346 199.866 40.502 199.698 40.706C199.542 40.898 199.464 41.144 199.464 41.444C199.464 41.864 199.614 42.212 199.914 42.488C200.214 42.752 200.598 42.884 201.066 42.884ZM215.539 46.286H214.567L214.297 44H207.529L207.259 46.286H206.287V42.74H207.349C207.445 42.608 207.571 42.374 207.727 42.038C207.883 41.69 208.033 41.21 208.177 40.598C208.333 39.974 208.465 39.206 208.573 38.294C208.693 37.37 208.765 36.272 208.789 35H214.225V42.74H215.539V46.286ZM212.785 42.74V36.26H210.085C210.061 36.764 210.019 37.316 209.959 37.916C209.899 38.504 209.815 39.098 209.707 39.698C209.611 40.286 209.485 40.844 209.329 41.372C209.173 41.9 208.993 42.356 208.789 42.74H212.785Z" fill="white"/>
<defs>
<clipPath id="clip0_2015_78">
<rect width="50" height="50" fill="white"/>
</clipPath>
</defs>
</svg>
