<svg width="24" height="24" viewBox="0 0 24 24" fill="none" xmlns="http://www.w3.org/2000/svg">
<path d="M12 23.5C8.95001 23.5 6.02494 22.2884 3.86827 20.1317C1.7116 17.9751 0.5 15.05 0.5 12C0.5 8.95001 1.7116 6.02494 3.86827 3.86827C6.02494 1.7116 8.95001 0.5 12 0.5C15.05 0.5 17.9751 1.7116 20.1317 3.86827C22.2884 6.02494 23.5 8.95001 23.5 12C23.5 15.05 22.2884 17.9751 20.1317 20.1317C17.9751 22.2884 15.05 23.5 12 23.5ZM20.9125 14.3C21.302 12.7914 21.302 11.2086 20.9125 9.7H16.5195C16.6254 11.2315 16.6254 12.7685 16.5195 14.3H20.9125ZM19.9695 16.6H16.2665C16.0744 17.9863 15.7073 19.3426 15.174 20.6365C17.1942 19.8913 18.8905 18.4635 19.9695 16.6ZM9.792 14.3H14.208C14.3329 12.7692 14.3329 11.2308 14.208 9.7H9.792C9.66713 11.2308 9.66713 12.7692 9.792 14.3ZM10.0795 16.6C10.551 19.36 11.379 21.2 12 21.2C12.621 21.2 13.449 19.36 13.9205 16.6H10.0795ZM3.0875 14.3H7.4805C7.37463 12.7685 7.37463 11.2315 7.4805 9.7H3.0875C2.69798 11.2086 2.69798 12.7914 3.0875 14.3ZM4.0305 16.6C5.1095 18.4635 6.80577 19.8913 8.826 20.6365C8.343 19.5325 7.975 18.1525 7.7335 16.6H4.0305ZM19.9695 7.4C18.8905 5.53654 17.1942 4.10874 15.174 3.3635C15.657 4.4675 16.025 5.8475 16.2665 7.4H19.9695ZM10.0795 7.4H13.9205C13.449 4.64 12.621 2.8 12 2.8C11.379 2.8 10.551 4.64 10.0795 7.4ZM4.0305 7.4H7.7335C7.9635 5.8475 8.343 4.4675 8.826 3.3635C6.80577 4.10874 5.1095 5.53654 4.0305 7.4Z" fill="white"/>
</svg>
