<svg width="43" height="42" viewBox="0 0 43 42" fill="none" xmlns="http://www.w3.org/2000/svg">
<path d="M30.2185 21C30.2199 23.0518 29.4972 25.0382 28.1776 26.6093C26.858 28.1804 25.0263 29.2355 23.0051 29.5885C20.984 29.9416 18.9031 29.57 17.129 28.5393C15.3549 27.5086 14.0015 25.8849 13.3072 23.9541L8.32031 27.9436C9.87096 30.8913 12.3645 33.2344 15.4029 34.5988C18.4413 35.9632 21.8492 36.2703 25.0825 35.4709C28.3158 34.6715 31.188 32.8119 33.2406 30.1888C35.2931 27.5658 36.4076 24.3307 36.406 21" fill="#00AC47"/>
<path d="M30.2186 21C30.2175 22.3871 29.8849 23.7539 29.2486 24.9865C28.6123 26.2191 27.6907 27.2817 26.5605 28.086L31.4907 32.0302C33.0367 30.6383 34.2731 28.9372 35.1198 27.0371C35.9666 25.137 36.4048 23.0802 36.4061 21" fill="#4285F4"/>
<path d="M12.7812 21C12.7834 19.9922 12.9615 18.9925 13.3074 18.0459L8.32051 14.0564C7.18661 16.1952 6.59375 18.5792 6.59375 21C6.59375 23.4208 7.18661 25.8048 8.32051 27.9436L13.3074 23.9541C12.9615 23.0076 12.7834 22.0078 12.7812 21Z" fill="#FFBA00"/>
<path d="M21.4998 12.2813C23.3446 12.2818 25.1411 12.8713 26.6276 13.964L31.195 9.70107C29.4995 8.2392 27.4958 7.17912 25.3333 6.59992C23.1708 6.02073 20.9054 5.93739 18.7062 6.35612C16.507 6.77484 14.4307 7.68483 12.6324 9.01816C10.834 10.3515 9.36 12.0737 8.32031 14.0564L13.3072 18.0459C13.9154 16.3599 15.028 14.9021 16.4938 13.8708C17.9596 12.8394 19.7075 12.2844 21.4998 12.2813Z" fill="#EA4435"/>
<path d="M36.4062 19.875V21L33.875 24.9375H22.0625V18.75H35.2812C35.5796 18.75 35.8658 18.8685 36.0767 19.0795C36.2877 19.2905 36.4062 19.5766 36.4062 19.875Z" fill="#4285F4"/>
</svg>
