<svg width="24" height="24" viewBox="0 0 24 24" fill="none" xmlns="http://www.w3.org/2000/svg">
<path fill-rule="evenodd" clip-rule="evenodd" d="M11.1698 22.7009C11.1698 22.7009 3 16.1089 3 9.62259C3 7.33574 3.94821 5.14255 5.63604 3.5255C7.32387 1.90845 9.61305 1 12 1C14.3869 1 16.6761 1.90845 18.364 3.5255C20.0518 5.14255 21 7.33574 21 9.62259C21 16.1089 12.8302 22.7009 12.8302 22.7009C12.3757 23.1019 11.6276 23.0975 11.1698 22.7009ZM12 13.395C12.5171 13.395 13.0291 13.2974 13.5068 13.1078C13.9845 12.9182 14.4186 12.6404 14.7842 12.2901C15.1499 11.9398 15.4399 11.5239 15.6378 11.0662C15.8357 10.6085 15.9375 10.118 15.9375 9.62259C15.9375 9.12719 15.8357 8.63665 15.6378 8.17896C15.4399 7.72127 15.1499 7.30541 14.7842 6.95511C14.4186 6.60481 13.9845 6.32694 13.5068 6.13736C13.0291 5.94778 12.5171 5.85021 12 5.85021C10.9557 5.85021 9.95419 6.24765 9.21577 6.95511C8.47734 7.66257 8.0625 8.62209 8.0625 9.62259C8.0625 10.6231 8.47734 11.5826 9.21577 12.2901C9.95419 12.9975 10.9557 13.395 12 13.395Z" fill="white"/>
</svg>
