<svg width="24" height="24" viewBox="0 0 24 24" fill="none" xmlns="http://www.w3.org/2000/svg">
<path fill-rule="evenodd" clip-rule="evenodd" d="M19.9283 3.12314C20.1742 3.01411 20.4434 2.9765 20.7078 3.01424C20.9722 3.05198 21.2221 3.16368 21.4316 3.33772C21.6411 3.51177 21.8025 3.74178 21.899 4.00384C21.9955 4.26589 22.0235 4.5504 21.9802 4.82775L19.7234 19.2498C19.5044 20.6409 18.0556 21.4387 16.8446 20.7458C15.8316 20.166 14.327 19.2728 12.9737 18.3409C12.297 17.8744 10.2243 16.3805 10.479 15.3175C10.6979 14.4085 14.1807 10.993 16.1709 8.96241C16.952 8.16462 16.5958 7.7044 15.6734 8.43824C13.3827 10.2603 9.70483 13.031 8.48884 13.811C7.41614 14.4987 6.8569 14.6161 6.1882 14.4987C4.96823 14.2848 3.83682 13.9536 2.91338 13.55C1.66554 13.0048 1.72624 11.1975 2.91238 10.6712L19.9283 3.12314Z" fill="white"/>
</svg>
